<svg width="246" height="33" viewBox="0 0 246 33" fill="none" xmlns="http://www.w3.org/2000/svg">
<g filter="url(#filter0_di)">
<path d="M48.4534 6.108V18.564C48.4534 19.908 48.8134 20.892 49.5334 21.516C50.2534 22.14 51.2014 22.452 52.3774 22.452H56.7334V24H29.5534V22.452C31.8334 22.452 33.2374 22.116 33.7654 21.444C34.0534 21.084 34.2334 20.748 34.3054 20.436C34.3774 20.1 34.4134 19.62 34.4134 18.996V14.136C34.4134 13.08 33.9094 12.552 32.9014 12.552H24.4054C23.3974 12.552 22.8934 13.08 22.8934 14.136V19.104C22.8934 19.728 22.9294 20.196 23.0014 20.508C23.0734 20.82 23.2534 21.144 23.5414 21.48C24.0694 22.128 25.4734 22.452 27.7534 22.452V24H0.609446V22.452H4.92945C6.10545 22.452 7.04145 22.152 7.73745 21.552C8.45745 20.928 8.81745 19.932 8.81745 18.564V6.108C8.81745 5.028 8.43345 4.104 7.66545 3.336C6.92145 2.544 6.00945 2.148 4.92945 2.148H0.609446V0.599999H27.7534V2.148C25.9054 2.148 24.6334 2.46 23.9374 3.084C23.2414 3.684 22.8934 4.56 22.8934 5.712V10.644H34.4134V5.712C34.4134 4.56 34.0654 3.684 33.3694 3.084C32.6734 2.46 31.4014 2.148 29.5534 2.148V0.599999H56.7334V2.148H52.3774C51.3214 2.148 50.3974 2.544 49.6054 3.336C48.8374 4.128 48.4534 5.052 48.4534 6.108ZM13.6054 22.452V2.148H11.2654V22.452H13.6054ZM39.2374 22.452V2.148H36.8974V22.452H39.2374Z" fill="#DC1637"/>
<path d="M80.4852 8.55C79.6252 8.55 78.9452 8.77 78.4452 9.21C77.9652 9.65 77.7252 10.23 77.7252 10.95V12.15C77.7252 13.61 78.4352 14.34 79.8552 14.34C80.9952 14.34 82.1952 14.02 83.4552 13.38C84.7352 12.72 85.5752 11.96 85.9752 11.1H87.0852V19.02H85.9752C85.5752 18.12 84.7552 17.4 83.5152 16.86C82.2752 16.3 81.0552 16.02 79.8552 16.02C78.4352 16.02 77.7252 16.75 77.7252 18.21V20.22C77.7252 21.88 78.4052 22.71 79.7652 22.71H82.0752C86.4752 22.71 89.7252 21.28 91.8252 18.42H92.6952V24H61.7652V22.71H64.9152C66.6952 22.71 67.5852 21.83 67.5852 20.07V11.22C67.5852 10.5 67.3252 9.88 66.8052 9.36C66.2852 8.82 65.6552 8.55 64.9152 8.55H61.7652V7.26H92.6952V13.26H91.8252C90.8652 11.94 89.4452 10.83 87.5652 9.93C85.7052 9.01 83.3452 8.55 80.4852 8.55ZM69.4452 22.71H70.9752V8.55H69.4452V22.71ZM135.643 22.71V24H120.403L115.273 17.43C114.753 16.75 114.323 16.41 113.983 16.41C113.643 16.41 113.443 16.53 113.383 16.77C113.323 16.99 113.293 17.45 113.293 18.15V20.04C113.293 21.82 114.183 22.71 115.963 22.71H117.913V24H97.273V22.71H100.453C102.253 22.71 103.153 21.82 103.153 20.04V11.25C103.153 10.51 102.883 9.88 102.343 9.36C101.823 8.82 101.193 8.55 100.453 8.55H97.273V7.26C112.673 7.24 121.833 7.23 124.753 7.23C130.793 7.23 133.813 8.81 133.813 11.97C133.813 12.87 133.523 13.63 132.943 14.25C132.383 14.85 131.583 15.3 130.543 15.6C128.783 16.08 126.633 16.34 124.093 16.38V16.56C124.513 16.92 125.173 17.29 126.073 17.67C126.993 18.03 128.023 18.3 129.163 18.48L132.553 22.71H135.643ZM105.013 22.71H106.543V8.55H105.013V22.71ZM113.293 9.78V13.38C113.293 13.8 113.703 14.17 114.523 14.49C115.343 14.79 116.313 14.94 117.433 14.94C118.553 14.94 119.523 14.7 120.343 14.22C121.163 13.74 121.573 12.96 121.573 11.88C121.573 10.8 121.113 9.98 120.193 9.42C119.293 8.84 118.393 8.55 117.493 8.55H114.493C114.153 8.55 113.863 8.67 113.623 8.91C113.403 9.15 113.293 9.44 113.293 9.78ZM116.743 16.41L121.663 22.71H123.553C121.393 19.91 119.763 17.81 118.663 16.41H116.743ZM125.083 13.95C125.503 13.33 125.713 12.68 125.713 12C125.713 11.32 125.503 10.67 125.083 10.05C124.663 9.43 124.153 8.99 123.553 8.73L123.433 8.82C123.873 9.6 124.093 10.66 124.093 12C124.093 13.34 123.873 14.4 123.433 15.18L123.553 15.27C124.153 15.01 124.663 14.57 125.083 13.95ZM169.67 15.6C169.67 17.24 168.93 18.76 167.45 20.16C165.99 21.54 164 22.64 161.48 23.46C158.96 24.26 156.2 24.66 153.2 24.66C150.22 24.66 147.46 24.26 144.92 23.46C142.4 22.64 140.4 21.54 138.92 20.16C137.44 18.76 136.7 17.24 136.7 15.6C136.7 13.06 138.22 10.93 141.26 9.21C144.3 7.47 148.28 6.6 153.2 6.6C158.12 6.6 162.09 7.47 165.11 9.21C168.15 10.93 169.67 13.06 169.67 15.6ZM157.4 9.78C156.62 8.54 155.22 7.92 153.2 7.92C151.18 7.92 149.78 8.54 149 9.78C148.22 11.02 147.83 12.94 147.83 15.54C147.83 18.14 148.29 20.1 149.21 21.42C150.15 22.72 151.48 23.37 153.2 23.37C154.92 23.37 156.24 22.72 157.16 21.42C158.1 20.1 158.57 18.14 158.57 15.54C158.57 12.94 158.18 11.02 157.4 9.78ZM147.62 23.13C145.32 22.53 143.46 21.57 142.04 20.25C140.64 18.91 139.94 17.37 139.94 15.63C139.94 13.87 140.64 12.33 142.04 11.01C143.46 9.69 145.33 8.72 147.65 8.1L147.59 7.92C144.67 8.52 142.32 9.5 140.54 10.86C138.78 12.22 137.9 13.81 137.9 15.63C137.9 17.43 138.78 19.01 140.54 20.37C142.32 21.73 144.66 22.72 147.56 23.34L147.62 23.13ZM159.05 8.4C159.99 10.76 160.46 13.16 160.46 15.6C160.46 18.04 159.98 20.46 159.02 22.86L159.14 22.95C161.4 21.01 162.53 18.57 162.53 15.63C162.53 12.67 161.41 10.23 159.17 8.31L159.05 8.4ZM191.257 8.55C190.397 8.55 189.717 8.77 189.217 9.21C188.737 9.65 188.497 10.23 188.497 10.95V12.15C188.497 13.61 189.207 14.34 190.627 14.34C191.767 14.34 192.967 14.02 194.227 13.38C195.507 12.72 196.347 11.96 196.747 11.1H197.857V19.02H196.747C196.347 18.12 195.527 17.4 194.287 16.86C193.047 16.3 191.827 16.02 190.627 16.02C189.207 16.02 188.497 16.75 188.497 18.21V20.22C188.497 21.88 189.177 22.71 190.537 22.71H192.847C197.247 22.71 200.497 21.28 202.597 18.42H203.467V24H172.537V22.71H175.687C177.467 22.71 178.357 21.83 178.357 20.07V11.22C178.357 10.5 178.097 9.88 177.577 9.36C177.057 8.82 176.427 8.55 175.687 8.55H172.537V7.26H203.467V13.26H202.597C201.637 11.94 200.217 10.83 198.337 9.93C196.477 9.01 194.117 8.55 191.257 8.55ZM180.217 22.71H181.747V8.55H180.217V22.71ZM213.744 17.46C212.304 16.96 211.104 16.29 210.144 15.45C209.184 14.61 208.704 13.7 208.704 12.72C208.704 11.72 208.874 10.87 209.214 10.17C209.574 9.45 210.094 8.88 210.774 8.46C211.474 8.04 212.164 7.7 212.844 7.44C213.524 7.18 214.394 7 215.454 6.9C217.134 6.74 218.784 6.66 220.404 6.66C224.504 6.66 228.854 7.26 233.454 8.46C233.474 8.36 233.624 7.93 233.904 7.17H235.254V12.9H233.934C232.514 11.52 230.414 10.34 227.634 9.36C224.854 8.36 222.454 7.86 220.434 7.86C218.434 7.86 217.434 8.36 217.434 9.36C217.434 10.32 219.054 11.02 222.294 11.46C225.494 11.92 228.504 12.58 231.324 13.44C232.704 13.88 233.854 14.56 234.774 15.48C235.714 16.4 236.184 17.49 236.184 18.75C236.184 22.69 232.124 24.66 224.004 24.66C219.624 24.66 215.194 23.99 210.714 22.65L210.024 24.12H208.674V16.8H210.024C210.284 17.42 210.854 18.11 211.734 18.87C212.614 19.63 213.664 20.35 214.884 21.03C216.124 21.71 217.554 22.28 219.174 22.74C220.814 23.2 222.414 23.43 223.974 23.43C226.734 23.43 228.114 23.04 228.114 22.26C228.114 21.46 226.434 20.71 223.074 20.01C219.754 19.33 216.644 18.48 213.744 17.46ZM210.414 12.27C210.414 13.61 211.464 14.77 213.564 15.75C215.664 16.71 219.134 17.75 223.974 18.87C226.134 19.37 227.674 19.8 228.594 20.16C229.534 20.52 230.344 21.08 231.024 21.84C231.024 21.8 231.044 21.77 231.084 21.75C231.144 21.73 231.174 21.71 231.174 21.69C231.174 20.69 230.794 19.92 230.034 19.38C229.194 18.8 228.334 18.39 227.454 18.15C226.574 17.91 225.874 17.73 225.354 17.61C224.834 17.49 224.114 17.34 223.194 17.16C222.294 16.96 221.574 16.8 221.034 16.68C214.434 15.16 211.094 13.18 211.014 10.74H210.804C210.544 11.2 210.414 11.71 210.414 12.27Z" fill="#F2F2F2"/>
</g>
<defs>
<filter id="filter0_di" x="0.609436" y="0.599976" width="244.575" height="32.06" filterUnits="userSpaceOnUse" color-interpolation-filters="sRGB">
<feFlood flood-opacity="0" result="BackgroundImageFix"/>
<feColorMatrix in="SourceAlpha" type="matrix" values="0 0 0 0 0 0 0 0 0 0 0 0 0 0 0 0 0 0 127 0"/>
<feOffset dx="5" dy="4"/>
<feGaussianBlur stdDeviation="2"/>
<feColorMatrix type="matrix" values="0 0 0 0 0.395833 0 0 0 0 0.395833 0 0 0 0 0.395833 0 0 0 0.2 0"/>
<feBlend mode="normal" in2="BackgroundImageFix" result="effect1_dropShadow"/>
<feBlend mode="normal" in="SourceGraphic" in2="effect1_dropShadow" result="shape"/>
<feColorMatrix in="SourceAlpha" type="matrix" values="0 0 0 0 0 0 0 0 0 0 0 0 0 0 0 0 0 0 127 0" result="hardAlpha"/>
<feOffset dx="2" dy="10"/>
<feGaussianBlur stdDeviation="2"/>
<feComposite in2="hardAlpha" operator="arithmetic" k2="-1" k3="1"/>
<feColorMatrix type="matrix" values="0 0 0 0 0 0 0 0 0 0 0 0 0 0 0 0 0 0 0.2 0"/>
<feBlend mode="normal" in2="shape" result="effect2_innerShadow"/>
</filter>
</defs>
</svg>
