<svg width="66" height="32" viewBox="0 0 66 32" fill="none" xmlns="http://www.w3.org/2000/svg">
<g filter="url(#filter0_d)">
<path d="M48.1751 6.108V18.564C48.1751 19.908 48.5351 20.892 49.2551 21.516C49.9751 22.14 50.9231 22.452 52.0991 22.452H56.4551V24H29.2751V22.452C31.5551 22.452 32.9591 22.116 33.4871 21.444C33.7751 21.084 33.9551 20.748 34.0271 20.436C34.0991 20.1 34.1351 19.62 34.1351 18.996V14.136C34.1351 13.08 33.6311 12.552 32.6231 12.552H24.1271C23.1191 12.552 22.6151 13.08 22.6151 14.136V19.104C22.6151 19.728 22.6511 20.196 22.7231 20.508C22.7951 20.82 22.9751 21.144 23.2631 21.48C23.7911 22.128 25.1951 22.452 27.4751 22.452V24H0.331125V22.452H4.65113C5.82713 22.452 6.76313 22.152 7.45913 21.552C8.17913 20.928 8.53913 19.932 8.53913 18.564V6.108C8.53913 5.028 8.15513 4.104 7.38713 3.336C6.64313 2.544 5.73113 2.148 4.65113 2.148H0.331125V0.599999H27.4751V2.148C25.6271 2.148 24.3551 2.46 23.6591 3.084C22.9631 3.684 22.6151 4.56 22.6151 5.712V10.644H34.1351V5.712C34.1351 4.56 33.7871 3.684 33.0911 3.084C32.3951 2.46 31.1231 2.148 29.2751 2.148V0.599999H56.4551V2.148H52.0991C51.0431 2.148 50.1191 2.544 49.3271 3.336C48.5591 4.128 48.1751 5.052 48.1751 6.108ZM13.3271 22.452V2.148H10.9871V22.452H13.3271ZM38.9591 22.452V2.148H36.6191V22.452H38.9591Z" fill="#F2F2F2"/>
</g>
<defs>
<filter id="filter0_d" x="0.331116" y="0.600006" width="65.124" height="31.4" filterUnits="userSpaceOnUse" color-interpolation-filters="sRGB">
<feFlood flood-opacity="0" result="BackgroundImageFix"/>
<feColorMatrix in="SourceAlpha" type="matrix" values="0 0 0 0 0 0 0 0 0 0 0 0 0 0 0 0 0 0 127 0"/>
<feOffset dx="5" dy="4"/>
<feGaussianBlur stdDeviation="2"/>
<feColorMatrix type="matrix" values="0 0 0 0 0.395833 0 0 0 0 0.395833 0 0 0 0 0.395833 0 0 0 0.2 0"/>
<feBlend mode="normal" in2="BackgroundImageFix" result="effect1_dropShadow"/>
<feBlend mode="normal" in="SourceGraphic" in2="effect1_dropShadow" result="shape"/>
</filter>
</defs>
</svg>
